<svg width="64" height="60" viewBox="0 0 64 60" fill="none" xmlns="http://www.w3.org/2000/svg">
<path d="M8.46118 39.0237L8.73918 37.1674L12.6992 37.6887L12.4212 39.5449L8.46118 39.0237Z" fill="white"/>
<path d="M16.6885 51.474L16.9666 49.6172L18.9471 49.8779L18.669 51.7347L16.6885 51.474Z" fill="white"/>
<path d="M62.087 27.6385L61.913 25.771L41.852 27.4172C41.1893 27.471 40.5644 27.7298 40.0756 28.1529C39.5869 28.5759 39.262 29.1393 39.152 29.7544L38.242 34.875C38.2111 35.1369 38.2394 35.402 38.3251 35.6529C38.4108 35.9038 38.5519 36.135 38.7393 36.3314C38.9267 36.5278 39.1561 36.6849 39.4126 36.7926C39.6691 36.9002 39.947 36.956 40.228 36.9563C40.2868 36.9566 40.3455 36.954 40.404 36.9488L57.12 35.5753L58.341 48.6506L52.285 49.1475C51.9036 47.6102 50.9433 46.2536 49.5804 45.3269C48.2176 44.4002 46.5439 43.9657 44.8667 44.1032C43.1896 44.2407 41.6217 44.941 40.4511 46.0754C39.2806 47.2098 38.586 48.7021 38.495 50.2781L35.428 50.5294C35.2974 50.5407 35.1657 50.5274 35.0406 50.4902C34.9156 50.453 34.7998 50.3927 34.7 50.3128C34.599 50.2341 34.5156 50.1374 34.4547 50.0283C34.3937 49.9192 34.3565 49.7999 34.345 49.6772L34.258 48.7397L37.246 48.4941L37.071 46.6266L34.083 46.875L33.993 45.9113L37.515 43.9275C37.6452 43.8542 37.7558 43.754 37.8385 43.6345C37.9212 43.5151 37.9738 43.3796 37.9923 43.2383C38.0108 43.097 37.9948 42.9535 37.9453 42.8189C37.8959 42.6843 37.8144 42.562 37.707 42.4613L36.414 41.25L37.707 40.0378C37.8187 39.9328 37.9023 39.8044 37.9508 39.6632C37.9992 39.5219 38.0113 39.372 37.9859 39.2255C37.9605 39.0791 37.8984 38.9404 37.8048 38.8209C37.7111 38.7013 37.5885 38.6043 37.447 38.5378L34 36.9216C34.09 36.5906 34.178 36.2588 34.293 35.9353L38.055 27.375C38.2633 26.8975 38.6081 26.4831 39.0515 26.1776C39.4949 25.8721 40.0197 25.6872 40.568 25.6435L61.181 23.956C61.4073 23.9386 61.635 23.9442 61.86 23.9728L62.14 22.1166C61.7646 22.0678 61.3846 22.0583 61.007 22.0885L40.393 23.776C39.4792 23.8492 38.6047 24.1574 37.8657 24.6667C37.1268 25.176 36.5521 25.8666 36.205 26.6625L32.424 35.2875C31.9335 36.6668 31.6478 38.1027 31.575 39.555C31.3578 39.0881 31.084 38.6461 30.759 38.2378C30.2075 37.548 29.5156 36.9676 28.7232 36.53C27.9309 36.0925 27.0539 35.8066 26.143 35.6888L24.55 35.4788L29.873 32.1525L31.293 33.4838L32.707 32.1581L30.707 30.2831C30.5436 30.1298 30.3285 30.0344 30.0984 30.013C29.8683 29.9916 29.6374 30.0457 29.445 30.166L22.265 34.6528L15.647 24.6394C15.261 24.0552 14.7426 23.5578 14.1286 23.1826C13.5145 22.8074 12.8199 22.5634 12.094 22.4681L2.13902 21.1556L1.86102 23.0128L11.815 24.3253C12.2508 24.3821 12.6678 24.5283 13.0365 24.7533C13.4051 24.9784 13.7164 25.2769 13.948 25.6275L14.58 26.5828L2.13902 24.9441L1.86102 26.8003L6.18202 27.3703L5.34702 32.94L2.13902 32.5181L1.86102 34.3744L5.06902 34.7972L3.12002 47.7947L2.13902 47.6653L1.86102 49.5216L10.842 50.7047C10.8489 52.441 11.5894 54.1039 12.9014 55.3293C14.2135 56.5548 15.99 57.2428 17.842 57.2428C19.3555 57.2388 20.8269 56.7757 22.0365 55.9229C23.2461 55.0701 24.1289 53.8733 24.553 52.5113L27.602 52.9125C27.7421 52.9312 27.8835 52.9406 28.025 52.9406C28.7474 52.9393 29.445 52.6937 29.9897 52.2488C30.5344 51.8039 30.8896 51.1898 30.99 50.5191L31.87 44.6438L32.356 49.8403C32.423 50.5393 32.7658 51.1898 33.3173 51.6643C33.8689 52.1389 34.5894 52.4035 35.338 52.4063C35.426 52.4063 35.514 52.4063 35.602 52.396L38.67 52.1438C39.0315 53.5814 39.8991 54.8628 41.1329 55.7813C42.3667 56.6999 43.8946 57.2018 45.47 57.2063C45.674 57.2063 45.879 57.1978 46.085 57.181C47.7615 57.0446 49.3292 56.3455 50.4999 55.2122C51.6706 54.0789 52.3655 52.5875 52.457 51.0122L62.085 50.2219L61.911 48.3544L60.331 48.4838L59.111 35.4085L62.085 35.1647L61.911 33.2972L58.937 33.5485L58.415 27.9375L62.087 27.6385ZM30.12 42.8316L29.98 43.7597L26.02 43.2375L26.298 41.3813L30.159 41.8894C30.1794 42.2039 30.1663 42.5195 30.12 42.8316ZM8.16302 27.631L15.946 28.6566V28.651L20.067 34.8797L7.32702 33.2016L8.16302 27.631ZM22.787 51.3319C22.6495 52.2501 22.2245 53.1094 21.566 53.8011C20.9074 54.4929 20.0449 54.986 19.0874 55.2181C18.1299 55.4502 17.1204 55.4109 16.1868 55.1051C15.2531 54.7994 14.4371 54.2409 13.842 53.5003C13.2832 52.805 12.9419 51.9775 12.8565 51.1106C12.771 50.2437 12.9448 49.3716 13.3583 48.5921C13.7718 47.8126 14.4087 47.1564 15.1977 46.6971C15.9866 46.2379 16.8964 45.9937 17.825 45.9919C18.0612 45.9919 18.2971 46.0072 18.531 46.0378C19.8434 46.2124 21.0285 46.8677 21.8263 47.8601C22.6241 48.8525 22.9696 50.101 22.787 51.3319ZM27.877 51.0563L24.827 50.6541C24.8228 49.4373 24.4574 48.2456 23.7717 47.2124C23.0861 46.1792 22.1073 45.3453 20.9449 44.8041C19.7824 44.2628 18.4822 44.0354 17.1898 44.1475C15.8974 44.2596 14.6638 44.7067 13.627 45.4388C12.4198 46.2897 11.542 47.487 11.127 48.8485L5.10002 48.0553L7.04902 35.0625L21.9 37.0153L25.861 37.5375C26.632 37.6212 27.3692 37.8817 28.0073 38.2958C28.6455 38.71 29.165 39.2651 29.52 39.9122L26.573 39.5241C26.0481 39.4548 25.5152 39.5838 25.0917 39.8826C24.6681 40.1815 24.3884 40.6257 24.314 41.1178L24.036 42.9741C23.9618 43.4664 24.0993 43.9661 24.4181 44.3635C24.7369 44.7608 25.2109 45.0231 25.736 45.0928L29.697 45.6141L29.419 47.4713L26.448 47.0803L26.17 48.9366L29.141 49.3285L29.001 50.2566C28.9645 50.5021 28.8258 50.7241 28.6151 50.874C28.4045 51.0238 28.1391 51.0894 27.877 51.0563ZM35.312 39.6319L34.293 40.5872C34.1056 40.763 34.0002 41.0014 34.0002 41.25C34.0002 41.4986 34.1056 41.737 34.293 41.9128L35.388 42.9375L33.799 43.8328L33.59 41.5941C33.5065 40.6771 33.5183 39.7546 33.625 38.8397L35.312 39.6319ZM50.458 50.2378C50.5443 51.1614 50.3364 52.0883 49.8608 52.9011C49.3851 53.714 48.663 54.3764 47.7858 54.8045C46.9086 55.2326 45.9157 55.4072 44.9326 55.3062C43.9496 55.2053 43.0205 54.8333 42.263 54.2373C41.5054 53.6413 40.9534 52.8481 40.6767 51.958C40.4001 51.0679 40.4112 50.1208 40.7086 49.2366C41.0061 48.3524 41.5766 47.5708 42.3479 46.9905C43.1193 46.4103 44.0568 46.0576 45.042 45.9769C45.19 45.9647 45.342 45.9581 45.486 45.9581C46.7352 45.9603 47.9384 46.4007 48.8586 47.1928C49.7787 47.9848 50.3493 49.0711 50.458 50.2378ZM56.947 33.7191L40.222 35.13L41.127 30.0675C41.1637 29.8625 41.272 29.6747 41.4349 29.5337C41.5978 29.3926 41.8061 29.3064 42.027 29.2885L56.427 28.1072L56.947 33.7191Z" fill="white"/>
<path d="M41.3408 38.7493L45.3256 38.4229L45.4997 40.2908L41.5149 40.6172L41.3408 38.7493Z" fill="white"/>
<path d="M44.3641 49.8032L46.3565 49.6401L46.5306 51.508L44.5381 51.6711L44.3641 49.8032Z" fill="white"/>
<path d="M18.293 25.0379L19.707 23.7122L18.414 22.5H21C21.2652 22.5 21.5195 22.4013 21.7071 22.2255C21.8946 22.0496 22 21.8112 22 21.5625V19.1382L25.293 22.2254C25.4805 22.4011 25.7348 22.4998 26 22.4998C26.2651 22.4998 26.5194 22.4011 26.707 22.2254L30 19.1382V21.5625C30 21.8112 30.1053 22.0496 30.2929 22.2255C30.4804 22.4013 30.7348 22.5 31 22.5H34.586L32.293 24.6497L33.707 25.9754L37.707 22.2254C37.8468 22.0942 37.942 21.9272 37.9806 21.7454C38.0191 21.5636 37.9993 21.3751 37.9236 21.2038C37.848 21.0325 37.7198 20.8861 37.5554 20.7831C37.391 20.6801 37.1977 20.6251 37 20.625H32V16.875C31.9999 16.6897 31.9413 16.5084 31.8314 16.3543C31.7215 16.2002 31.5653 16.08 31.3826 16.0091C31.1999 15.9382 30.9989 15.9196 30.8049 15.9557C30.611 15.9919 30.4328 16.0812 30.293 16.2122L26 20.2369L21.707 16.2122C21.5671 16.0812 21.389 15.9919 21.195 15.9557C21.001 15.9196 20.8 15.9382 20.6173 16.0091C20.4346 16.08 20.2785 16.2002 20.1686 16.3543C20.0587 16.5084 20 16.6897 20 16.875V20.625H16C15.8022 20.6251 15.6089 20.6801 15.4445 20.7831C15.2801 20.8861 15.152 21.0325 15.0763 21.2038C15.0006 21.3751 14.9808 21.5636 15.0194 21.7454C15.058 21.9272 15.1532 22.0942 15.293 22.2254L18.293 25.0379Z" fill="white"/>
<path d="M24.3 15H26.3C26.3004 14.8186 26.3421 14.6394 26.4223 14.4744C26.5025 14.3093 26.6193 14.1622 26.765 14.0428C27.3644 13.462 27.6996 12.6854 27.6996 11.8772C27.6996 11.069 27.3644 10.2924 26.765 9.71156C26.6186 9.59206 26.5013 9.44454 26.4209 9.27894C26.3405 9.11334 26.2989 8.93351 26.2989 8.75156C26.2989 8.56962 26.3405 8.38979 26.4209 8.22419C26.5013 8.05859 26.6186 7.91107 26.765 7.79156C27.3677 7.21233 27.7035 6.43421 27.7 5.625H25.7C25.6997 5.8069 25.658 5.98665 25.5776 6.15222C25.4973 6.31778 25.3801 6.46534 25.234 6.585C24.6348 7.16638 24.2999 7.94317 24.2999 8.75156C24.2999 9.55995 24.6348 10.3367 25.234 10.9181C25.3801 11.0375 25.4972 11.1848 25.5775 11.3501C25.6578 11.5155 25.6993 11.695 25.6993 11.8767C25.6993 12.0584 25.6578 12.238 25.5775 12.4033C25.4972 12.5687 25.3801 12.716 25.234 12.8353C24.6311 13.4137 24.2956 14.1914 24.3 15Z" fill="white"/>
<path d="M30.3 13.125H32.3C32.3004 12.9436 32.3421 12.7644 32.4223 12.5994C32.5025 12.4343 32.6193 12.2872 32.765 12.1678C33.3644 11.587 33.6996 10.8104 33.6996 10.0022C33.6996 9.19397 33.3644 8.4174 32.765 7.83656C32.6186 7.71706 32.5013 7.56954 32.4209 7.40394C32.3405 7.23834 32.2989 7.05851 32.2989 6.87656C32.2989 6.69462 32.3405 6.51479 32.4209 6.34919C32.5013 6.18359 32.6186 6.03607 32.765 5.91656C33.3677 5.33733 33.7035 4.55921 33.7 3.75H31.7C31.6997 3.9319 31.658 4.11165 31.5776 4.27722C31.4973 4.44278 31.3801 4.59034 31.234 4.71C30.6348 5.29138 30.2999 6.06817 30.2999 6.87656C30.2999 7.68495 30.6348 8.46175 31.234 9.04313C31.3801 9.16245 31.4972 9.30976 31.5775 9.47512C31.6578 9.64047 31.6993 9.82004 31.6993 10.0017C31.6993 10.1834 31.6578 10.363 31.5775 10.5283C31.4972 10.6937 31.3801 10.841 31.234 10.9603C30.6311 11.5387 30.2956 12.3164 30.3 13.125Z" fill="white"/>
</svg>
