<svg width="62" height="60" viewBox="0 0 62 60" fill="none" xmlns="http://www.w3.org/2000/svg">
<path d="M33.5484 39.0468C32.9969 38.9612 32.4783 39.3424 32.3989 39.8806C32.2096 41.1637 31.0549 42.1306 29.7128 42.1306C28.6705 42.1306 27.7075 41.5412 27.26 40.6293C27.0191 40.1399 26.4126 39.9324 25.9056 40.1631C25.3987 40.3962 25.183 40.9837 25.4239 41.4743C26.2066 43.0674 27.8903 44.0974 29.7128 44.0974C32.0598 44.0974 34.08 42.4043 34.4113 40.1593C34.4901 39.6218 34.1045 39.1237 33.5484 39.0468Z" fill="white"/>
<path d="M31.2745 34.0469L29.5514 23.7H30.2456C30.7946 23.7 31.3313 23.485 31.7175 23.1106C32.1115 22.7288 32.3285 22.2231 32.3285 21.6838V18.3588C32.3285 17.8288 32.1056 17.3087 31.7188 16.9344C31.3313 16.5594 30.7946 16.3438 30.2456 16.3438H27.0481C25.6699 16.3438 24.5081 17.2106 24.0831 18.4069H22.785C22.2231 18.4069 21.7684 18.8475 21.7684 19.3906C21.7684 19.9337 22.2231 20.3744 22.785 20.3744H23.9003V32.0444C23.9003 33.625 22.5706 34.9106 20.9366 34.9106C20.0776 34.9106 19.2587 34.5531 18.6898 33.9294C18.1208 33.3056 17.8553 32.4744 17.9625 31.65L18.3817 28.4069C19.0643 28.0756 19.5384 27.3988 19.5384 26.6106V25.58C19.5384 24.7781 19.2019 23.9931 18.6161 23.4256C18.0304 22.8581 17.2192 22.5331 16.3906 22.5331H6.79673C5.96813 22.5331 5.15696 22.8587 4.57119 23.4256C3.98477 23.9937 3.64894 24.7788 3.64894 25.58V26.6106C3.64894 27.4894 4.236 28.2306 5.04846 28.5056C3.53915 29.82 2.58331 31.7175 2.58331 33.8319V38.9894C2.58331 39.5325 3.03863 39.9731 3.59985 39.9731H5.40948C5.88933 42.3244 8.06386 44.0981 10.5884 44.0981C13.142 44.0981 15.2881 42.3337 15.7648 39.9731H28.9553C29.9996 39.9731 31.0116 39.6762 31.8841 39.115L34.007 37.7444C34.4339 37.4694 34.5818 36.93 34.3525 36.4856C33.7183 35.2594 32.5952 34.3912 31.2745 34.0469ZM5.68138 25.58C5.68138 25.2956 5.80086 25.0175 6.00817 24.8169C6.21613 24.6156 6.50352 24.5006 6.79673 24.5006H16.3899C16.6831 24.5006 16.9705 24.6156 17.1785 24.8169C17.3865 25.0181 17.5053 25.2956 17.5053 25.58L17.4556 26.6594L5.68202 26.6106V25.58H5.68138ZM10.5884 42.1306C9.17533 42.1306 7.9489 41.2244 7.51554 39.9725H13.6594C13.2292 41.2281 12.017 42.1306 10.5884 42.1306ZM24.189 37.7494L24.1231 38.0056H4.61575V33.8319C4.61575 30.9619 7.02858 28.6269 9.99425 28.6269H16.304L15.945 31.4075C15.7661 32.7919 16.2104 34.1856 17.1656 35.2319C18.1208 36.2781 19.4958 36.8788 20.9379 36.8788C23.6917 36.8788 25.9321 34.7106 25.9321 32.0456V20.3756H27.0475C27.6094 20.3756 28.064 19.935 28.064 19.3919C28.064 18.8488 27.6094 18.4081 27.0475 18.4081H26.5928C26.7323 18.3475 26.8854 18.3119 27.0475 18.3119L30.2947 18.3594L30.245 21.7325H28.3579C28.0601 21.7325 27.7773 21.8594 27.5842 22.0781C27.3911 22.2969 27.3071 22.5881 27.3549 22.8719L29.1884 33.8831C26.8137 33.9375 24.7677 35.51 24.189 37.7494ZM30.7565 37.4781C30.2198 37.8225 29.5972 38.0056 28.9546 38.0056H26.2273C26.6626 36.7237 27.8987 35.8463 29.3111 35.8463H29.9944C30.772 35.8463 31.4934 36.1475 32.0178 36.6631L30.7565 37.4781Z" fill="white"/>
<path d="M11.0605 34.9113H7.863C7.30177 34.9113 6.84711 35.3519 6.84711 35.895C6.84711 36.4381 7.30177 36.8788 7.863 36.8788H11.0605C11.6218 36.8788 12.0771 36.4381 12.0771 35.895C12.0771 35.3519 11.6218 34.9113 11.0605 34.9113Z" fill="white"/>
<path d="M11.0605 32.3462H7.863C7.30177 32.3462 6.84711 32.7868 6.84711 33.3299C6.84711 33.8731 7.30177 34.3137 7.863 34.3137H11.0605C11.6218 34.3137 12.0771 33.8731 12.0771 33.3299C12.0771 32.7868 11.6218 32.3462 11.0605 32.3462Z" fill="white"/>
<path d="M58.4001 37.555H52.6651C52.5108 34.4481 49.859 31.9644 46.6104 31.9644C43.3625 31.9644 40.7101 34.4475 40.5557 37.555H38.6686C37.6372 37.555 36.7983 36.7431 36.7983 35.745V33.1775C36.7983 30.62 38.5885 28.3981 41.1525 27.7731L46.2559 26.5294C46.4425 26.49 46.6149 26.4519 47.0251 25.9875H57.153C57.7142 25.9875 58.1695 25.5469 58.1695 25.0037C58.1695 24.4606 57.7142 24.02 57.153 24.02H48.4717C49.2299 22.8969 50.2813 21.26 51.7752 18.8587C52.0903 18.2475 52.7252 17.8687 53.4311 17.8687H57.235C57.7963 17.8687 58.2516 17.4281 58.2516 16.885C58.2516 16.3419 57.7963 15.9012 57.235 15.9012H53.4311C51.9502 15.9012 50.6191 16.6981 49.9946 17.9119C48.2198 20.7637 46.1583 23.9287 45.5371 24.6756L40.6558 25.8644C37.1877 26.7094 34.7652 29.7169 34.7652 33.1775V35.745C34.7652 37.8275 36.5161 39.5219 38.668 39.5219H40.7979C41.5484 41.9419 43.8682 43.7112 46.6098 43.7112C49.3513 43.7112 51.6718 41.9419 52.4216 39.5219H58.3988C58.9601 39.5219 59.4154 39.0812 59.4154 38.5381C59.4154 37.995 58.9613 37.555 58.4001 37.555ZM46.6111 41.7444C44.3855 41.7444 42.5746 39.9925 42.5746 37.8381C42.5746 35.6837 44.3855 33.9319 46.6111 33.9319C48.8366 33.9319 50.6475 35.6837 50.6475 37.8381C50.6475 39.9925 48.8366 41.7444 46.6111 41.7444Z" fill="white"/>
<path d="M36.4566 24.1444V22.4563C36.4566 21.9132 36.0019 21.4725 35.4401 21.4725C34.8788 21.4725 34.4235 21.9132 34.4235 22.4563V24.1444C34.4235 24.6875 34.8788 25.1282 35.4401 25.1282C36.0019 25.1282 36.4566 24.6875 36.4566 24.1444Z" fill="white"/>
<path d="M38.2301 25.4787C38.4897 25.4787 38.75 25.3825 38.9489 25.1906L40.3361 23.8487C40.7333 23.4643 40.7333 22.8418 40.3361 22.4581C39.939 22.0737 39.2957 22.0737 38.8985 22.4581L37.5113 23.8C37.1141 24.1843 37.1141 24.8068 37.5113 25.1906C37.7102 25.3831 37.9698 25.4787 38.2301 25.4787Z" fill="white"/>
</svg>
