<svg width="34" height="32" viewBox="0 0 34 32" fill="none" xmlns="http://www.w3.org/2000/svg">
<g opacity="0.75">
<path d="M27.1645 8.39998C28.5599 9.86665 29.3971 11.4666 29.3971 14.1333C29.3971 18.8 25.9086 22.9333 21.0248 25.0667L19.769 23.3333C24.3737 20.9333 25.3505 17.8666 25.6296 15.8666C24.9319 16.2666 23.9551 16.4 22.9783 16.2666C20.4667 16 18.5131 14.1333 18.5131 11.6C18.5131 10.4 19.0713 9.19998 19.9085 8.26665C20.8853 7.33332 22.0016 6.93332 23.397 6.93332C24.9319 6.93332 26.3273 7.59998 27.1645 8.39998ZM13.2107 8.39998C14.6061 9.86665 15.4433 11.4666 15.4433 14.1333C15.4433 18.8 11.9549 22.9333 7.07102 25.0667L5.81518 23.3333C10.4199 20.9333 11.3967 17.8666 11.6758 15.8666C10.9781 16.2666 10.0013 16.4 9.02455 16.2666C6.51287 16 4.55934 14.1333 4.55934 11.6C4.55934 10.4 5.11749 9.19998 5.95472 8.26665C6.79195 7.33332 8.04779 6.93332 9.44317 6.93332C10.9781 6.93332 12.3735 7.59998 13.2107 8.39998Z" fill="#B08923"/>
</g>
</svg>
