<svg width="60" height="54" viewBox="0 0 60 54" fill="none" xmlns="http://www.w3.org/2000/svg">
<g clip-path="url(#clip0_39_318)">
<path d="M59.9453 25.631C59.8512 25.3577 59.6461 25.1276 59.3677 24.9828C56.1839 23.3282 54.3954 24.6583 53.4556 26.0652C53.4512 26.0718 53.447 26.0785 53.4427 26.0852L53.0668 26.6871L44.3092 21.9447L50.409 20.2468L53.8716 20.0014C54.1923 19.9813 54.4889 19.8553 54.7065 19.6468C54.9382 19.4248 55.0576 19.125 55.0343 18.8244L54.4975 11.9165C54.4506 11.311 53.8539 10.853 53.1643 10.8966C49.4971 11.1274 48.8405 13.13 48.9354 14.7695C48.9359 14.7772 48.9365 14.7849 48.9372 14.7926L48.986 15.3302L45.3251 15.6214C44.8416 15.6598 44.4842 16.0438 44.5269 16.479C44.5499 16.7819 44.9336 17.2215 45.4798 17.1974L49.1288 16.9071L49.309 18.8972C45.9514 19.7566 38.9507 21.7786 35.7754 23.0071L35.3191 22.2947L37.0189 18.8375C37.3258 18.2155 37.9847 17.7925 38.7398 17.7338L41.4125 17.5212C41.8961 17.4828 42.2535 17.0987 42.2107 16.6636C42.1679 16.2284 41.7415 15.9076 41.2579 15.9452L38.5869 16.1578C37.1956 16.2659 35.9794 17.0468 35.412 18.1963L34.2318 20.5967L31.3524 16.1008L35.0735 14.5347C36.3499 14.0133 36.9794 12.8977 37.1292 12.1079L37.6656 9.43155C37.7517 9.00166 37.4342 8.59022 36.9566 8.5127C36.4795 8.43529 36.0218 8.7209 35.9356 9.15079L35.3979 11.8344C35.3343 12.1687 35.0417 12.8103 34.3379 13.0978L30.4713 14.7251L30.0703 14.0989C29.5764 13.3312 28.9014 12.7065 28.1291 12.2658L32.4177 11.0449C32.7233 10.9579 32.9521 10.728 33.0147 10.445L34.6745 2.93295C34.8029 2.3516 35.4142 1.96463 36.0651 2.05112C36.3984 2.09552 36.6902 2.25562 36.8867 2.5019C37.0833 2.74827 37.1584 3.04833 37.0987 3.3467L36.6552 5.5604C36.569 5.99029 36.8865 6.40173 37.3642 6.47925C37.8428 6.55677 38.299 6.27105 38.3851 5.84116L38.8287 3.62746C38.9736 2.90394 38.7912 2.17652 38.3147 1.57925C37.8383 0.982082 37.1307 0.593849 36.3226 0.486165C34.7437 0.27491 33.2618 1.21496 32.9504 2.62445L31.392 9.6775L29.2332 10.2922C29.3199 9.45317 29.1452 8.40639 28.8339 7.08802C28.1685 4.27136 25.2485 2.43566 22.3236 2.99444C20.8938 3.26802 19.6808 4.06379 18.9081 5.23503C18.1489 6.3857 17.9069 7.7645 18.2265 9.11736C18.5487 10.4815 19.4166 11.6525 20.6704 12.4148C21.0867 12.6679 21.5308 12.8663 21.9924 13.0091L20.5577 14.3031C20.2148 14.6124 20.2154 15.1132 20.559 15.4217C20.7307 15.5758 20.9552 15.6528 21.1799 15.6528C21.4051 15.6528 21.6304 15.5753 21.802 15.4205L23.65 13.7538C24.0307 13.4566 24.426 13.1811 25.1514 13.1315C25.5578 13.1038 26.2667 13.1603 26.7986 13.7825C27.173 14.2207 27.3167 14.6734 27.2257 15.1282C27.1493 15.5573 26.6968 16.1501 26.022 16.5724L19.885 20.8189C19.6308 20.9948 19.5032 21.2812 19.5519 21.5664L20.8365 29.0748C20.9398 29.6777 20.4791 30.2462 19.8097 30.3423C19.145 30.4371 18.5115 30.0296 18.3974 29.4327L16.7844 20.9944C16.717 20.6607 16.7482 19.9678 17.3004 19.4809L18.9255 18.015C19.2684 17.7057 19.2677 17.2049 18.924 16.8964C18.5804 16.588 18.0239 16.5882 17.6811 16.8977L16.0631 18.3572C15.0616 19.24 14.894 20.4821 15.0534 21.2702L15.779 25.0666H11.7188V16.8928C11.7188 16.4558 11.3254 16.1017 10.8399 16.1017H0.878911C0.393401 16.1017 0 16.4558 0 16.8928C0 17.3297 0.393401 17.6838 0.878911 17.6838H9.961V25.8577C9.961 26.2946 10.3544 26.6487 10.8399 26.6487H16.0812L16.6646 29.701C16.9142 31.0058 18.1881 31.9383 19.6174 31.9382C19.7182 31.9382 19.8199 31.9316 19.9221 31.9222V34.8225C19.9221 35.2594 20.3155 35.6135 20.801 35.6135H29.883V43.7873C29.883 44.2243 30.2764 44.5784 30.7619 44.5784H39.844V52.7522C39.844 53.1892 40.2374 53.5433 40.7229 53.5433C41.2084 53.5433 41.6018 53.1892 41.6018 52.7522V43.7873C41.6018 43.3504 41.2084 42.9963 40.7229 42.9963H31.6408V34.8225C31.6408 34.3855 31.2474 34.0314 30.7619 34.0314H21.6798V31.1909C22.3621 30.6025 22.7275 29.7343 22.5735 28.834L21.368 21.7879L22.3703 21.0944C22.4344 21.2245 26.9388 29.8266 26.9388 29.8266C27.5143 30.9028 28.414 31.6754 29.6494 31.9319C29.9343 31.9911 30.2229 32.0206 30.5109 32.0206C30.9853 32.0206 31.4575 31.9406 31.9074 31.782L34.2588 30.9535C34.7107 30.7943 34.9338 30.3355 34.7568 29.9286C34.5798 29.5219 34.0704 29.3215 33.6179 29.4803L31.2665 30.3089C30.8748 30.4468 30.4525 30.475 30.0446 30.3903C29.375 30.2513 28.8258 29.8249 28.5756 29.2499C28.1582 28.2901 28.686 27.2037 29.7524 26.8279L41.0169 22.8589C41.6126 22.649 42.2959 22.7008 42.8447 22.9978L52.2052 28.0666L51.2118 29.6573L41.7766 26.8039C41.5812 26.7449 41.3686 26.7495 41.1763 26.8172L37.4506 28.1299C36.9988 28.2892 36.7756 28.7479 36.9527 29.1548C37.1297 29.5615 37.639 29.7625 38.0915 29.603L41.5197 28.3952L51.2622 31.3414L54.2972 32.8868C54.4974 32.9908 54.7159 33.0402 54.9307 33.0402C55.3567 33.0402 55.768 32.8456 55.9924 32.4961L59.8392 26.4994C60.0068 26.2387 60.0455 25.922 59.9453 25.631ZM52.7824 12.5212L53.2439 18.4591L51.0472 18.6149L50.6903 14.676C50.6169 13.3486 51.2119 12.7174 52.7824 12.5212ZM26.8118 6.59147C26.9426 6.84976 27.0455 7.12578 27.1143 7.41698C27.5601 9.30456 27.6141 10.2949 27.2947 10.7283C26.9939 11.1365 26.0778 11.337 24.6048 11.6188C23.6903 11.7934 22.7933 11.6659 22.0285 11.3076L23.3219 8.1019C23.5526 7.53004 24.0884 7.11238 24.7549 6.98487L26.8118 6.59147ZM20.4195 6.04271C20.9387 5.25549 21.7447 4.72245 22.6889 4.54188C22.9211 4.49748 23.1531 4.47607 23.3831 4.47607C24.1931 4.47607 24.974 4.74185 25.6171 5.20275L24.3894 5.43763C23.1256 5.67948 22.1087 6.47366 21.6695 7.56221L20.6123 10.1825C20.3005 9.77981 20.0689 9.31015 19.9457 8.7885C19.7183 7.82557 19.8865 6.8505 20.4195 6.04271ZM29.1115 25.3549C28.3182 25.6344 27.6866 26.1272 27.2652 26.7317L23.7966 20.1074L27.061 17.8485C28.0268 17.2931 28.7192 16.4207 28.9351 15.4945L34.1199 23.5901L29.1115 25.3549ZM54.7349 31.2923L52.8171 30.3159L54.9685 26.8707C55.7326 25.7335 56.6176 25.5097 58.0417 26.1374L54.7349 31.2923Z" fill="white"/>
<path d="M6.61866 13.8006C6.76842 14.0872 7.08471 14.2552 7.4146 14.2552C7.53987 14.2552 7.66725 14.231 7.78819 14.1798C8.22741 13.9938 8.41596 13.5226 8.20948 13.1273L7.26495 11.3204L9.79503 12.1966C10.0716 12.2922 10.3828 12.2562 10.6233 12.1008L13.1444 10.4712L12.431 12.719C12.2977 13.1389 12.568 13.5768 13.0348 13.6968C13.5011 13.8164 13.9879 13.5735 14.1212 13.1534L15.5282 8.71979C15.6308 8.3961 15.4947 8.04932 15.1888 7.85568C14.8828 7.66183 14.4741 7.66373 14.1705 7.86011L9.98323 10.5665L5.85366 9.13649C5.51862 9.02058 5.13893 9.09947 4.89436 9.33604C4.64991 9.57261 4.58979 9.91918 4.7426 10.2115L6.61866 13.8006Z" fill="white"/>
<path d="M36.6873 35.6223C36.358 35.9433 36.3803 36.4437 36.737 36.74L39.8488 39.3252C40.0177 39.4656 40.2315 39.535 40.4447 39.535C40.6815 39.535 40.9175 39.4493 41.0907 39.2805C41.42 38.9594 41.3978 38.4591 41.041 38.1627L37.9292 35.5776C37.5725 35.2813 37.0163 35.3012 36.6873 35.6223Z" fill="white"/>
<path d="M44.0884 32.3533L40.1389 32.1379C39.6544 32.1096 39.2379 32.4436 39.2086 32.8797C39.1793 33.3157 39.5482 33.6905 40.0328 33.717L43.9822 33.9323C44.0003 33.9334 44.0183 33.9338 44.0361 33.9338C44.4973 33.9338 44.8843 33.6105 44.9126 33.1906C44.9419 32.7547 44.573 32.3797 44.0884 32.3533Z" fill="white"/>
</g>
<defs>
<clipPath id="clip0_39_318">
<rect width="60" height="54" fill="white"/>
</clipPath>
</defs>
</svg>
