<svg width="60" height="60" viewBox="0 0 60 60" fill="none" xmlns="http://www.w3.org/2000/svg">
<path d="M2.52153 42.5251C1.86845 42.5251 1.33548 43.0503 1.32739 43.7052C1.3186 44.3647 1.84747 44.9064 2.50689 44.9144C10.6243 45.0171 8.46763 44.9951 8.84181 44.9951C9.49431 44.9951 10.0277 44.4698 10.0359 43.8149C10.0442 43.1555 9.51587 42.6138 8.85587 42.6056C0.738527 42.5028 2.8956 42.5251 2.52153 42.5251Z" fill="white"/>
<path d="M12.8667 37.1403L17.2475 33.8906C17.8207 33.4657 17.8954 32.6346 17.4075 32.114C17.3486 32.051 15.928 30.5537 13.3318 29.4726C10.9651 28.4868 7.10426 27.6534 2.14981 29.2789C1.52297 29.4843 1.1809 30.1596 1.38633 30.7868C1.59235 31.4137 2.2677 31.7545 2.89454 31.5491C6.26919 30.4416 9.43723 30.4708 12.31 31.6354C13.273 32.0265 14.0434 32.4875 14.6013 32.8786L11.7636 34.9831L2.53032 34.9167C1.86727 34.9085 1.33208 35.4431 1.3268 36.1026C1.32212 36.7621 1.85321 37.3013 2.51333 37.3061L12.1459 37.375C12.4173 37.3749 12.6631 37.2909 12.8667 37.1403Z" fill="white"/>
<path d="M46.7262 33.5847H57.4781C58.1388 33.5847 58.6734 33.0489 58.6734 32.3894C58.6734 31.7299 58.1387 31.1953 57.4781 31.1953H47.9215V12.0793H57.4781C58.1388 12.0793 58.6734 11.5441 58.6734 10.8845C58.6734 10.2244 58.1387 9.68982 57.4781 9.68982H46.7262C46.0666 9.68982 45.532 10.2245 45.532 10.8845V13.274H37.1684C36.6758 13.274 36.2333 13.5763 36.0547 14.0357L27.6926 35.541C27.6383 35.6787 27.6109 35.8259 27.6109 35.974V37.1682H26.4361L26.4483 34.9526C26.45 34.5674 26.2662 34.2044 25.9533 33.978C25.9393 33.9674 24.4895 32.897 23.5464 31.4497C22.8132 30.3247 21.8934 29.4101 20.8107 28.732L13.6796 24.2629C13.4912 24.1444 13.2741 24.0814 13.0511 24.0802C1.2532 24.0177 3.02637 24.0265 2.84074 24.0265C2.18414 24.0265 1.65012 24.557 1.6466 25.2148C1.64309 25.8744 2.17477 26.4125 2.83488 26.416L12.6986 26.4679L19.5418 30.7563C20.328 31.2501 21.0016 31.9212 21.5443 32.7535C22.3637 34.0119 23.4364 35.0041 24.0552 35.5212L24.0172 42.6861C21.2776 42.6708 22.0871 42.6744 21.933 42.6744C21.2759 42.6744 20.7413 43.2054 20.7377 43.8628C20.7342 44.5223 21.2665 45.0604 21.926 45.0638L25.1992 45.0814C25.8728 45.0814 26.3968 44.5431 26.4004 43.893L26.4062 42.8027C27.2525 43.7435 28.4788 44.3365 29.841 44.3365H36.0619C36.2498 45.2704 36.7307 46.1003 37.4043 46.726H18.423C19.2974 45.9147 19.8483 44.7603 19.8547 43.4763C19.8676 41.0168 17.8726 38.9858 15.3864 38.9858C12.9315 38.9858 10.9325 40.9655 10.9198 43.4296C10.9127 44.7289 11.4649 45.9043 12.3497 46.7261H2.52211C1.86199 46.7261 1.3268 47.2608 1.3268 47.9203C1.3268 48.581 1.86199 49.1156 2.52211 49.1156H57.4781C58.1388 49.1156 58.6734 48.5808 58.6734 47.9203C58.6734 47.2607 58.1387 46.7261 57.4781 46.7261H43.4776C44.1512 46.1004 44.6321 45.2717 44.8212 44.3367H57.4781C58.1388 44.3367 58.6734 43.8019 58.6734 43.1413C58.6734 42.4818 58.1387 41.9472 57.4781 41.9472H44.6496C44.2866 40.9317 43.5629 40.0831 42.6313 39.5577H57.4781C58.1388 39.5577 58.6734 39.0231 58.6734 38.3636C58.6734 37.7029 58.1387 37.1684 57.4781 37.1684H30.0002V36.1985L30.5523 34.779H34.7788C35.4383 34.779 35.9741 34.2444 35.9741 33.5849V29.9998C35.9741 29.5475 35.7184 29.1337 35.3133 28.9318L33.2309 27.8906L37.9852 15.6637H45.5317V32.3894C45.532 33.0489 46.0668 33.5847 46.7262 33.5847ZM15.398 41.3751C16.5437 41.3811 17.4717 42.3183 17.4653 43.4645C17.4594 44.5795 16.5641 45.5307 15.3764 45.5307C14.2277 45.5249 13.3027 44.5911 13.3091 43.4425C13.315 42.2962 14.2196 41.3751 15.398 41.3751ZM40.452 41.3751C41.5982 41.3811 42.5262 42.3183 42.5193 43.4645C42.5134 44.5795 41.6135 45.5307 40.431 45.5307C39.2823 45.5249 38.3568 44.5911 38.3637 43.4425C38.3695 42.2997 39.2719 41.3751 40.452 41.3751ZM36.2357 41.9471H29.841C28.6112 41.9471 27.6109 40.9468 27.6109 39.7164V39.5577H38.2576C37.327 40.0818 36.6022 40.9293 36.2357 41.9471ZM33.5848 30.7388V32.3894H31.4814L32.3616 30.1269L33.5848 30.7388Z" fill="white"/>
<path d="M39.5579 16.8583C39.07 16.8583 38.6299 17.1553 38.449 17.6089L36.0594 23.5825C35.7454 24.3658 36.3232 25.2214 37.1684 25.2214H43.1426C43.8021 25.2214 44.3366 24.6862 44.3366 24.0266V18.053C44.3366 17.3929 43.802 16.8583 43.1426 16.8583H39.5579ZM41.9473 22.8319H38.9333L40.3667 19.2477H41.9472V22.8319H41.9473Z" fill="white"/>
<path d="M16.9195 19.6253C17.1285 20.2509 17.8049 20.5895 18.4311 20.3811C19.0568 20.1722 19.3954 19.4956 19.1864 18.8695L15.7359 8.51729L19.6779 11.8021C20.3409 12.3548 21.3541 12.0425 21.5911 11.2126L22.8319 6.87022L24.0727 11.2126C24.3096 12.0419 25.3228 12.3548 25.9859 11.8021L29.9278 8.51729L26.4773 18.8695C26.2187 19.6458 26.7995 20.4424 27.6108 20.4424C28.1115 20.4424 28.5773 20.126 28.7442 19.6253L33.5229 5.28854C33.6921 4.78194 33.5041 4.22518 33.0629 3.92389C32.6216 3.62342 32.0357 3.65131 31.6248 3.9928L25.8656 8.79221L23.9804 2.1935C23.8345 1.68045 23.3653 1.32678 22.8319 1.32678C22.2984 1.32678 21.8297 1.68057 21.6832 2.1935L19.798 8.79221L14.0392 3.9928C13.6289 3.65131 13.0417 3.62342 12.6005 3.92389C12.1598 4.22506 11.9719 4.78182 12.1405 5.28854L16.9195 19.6253Z" fill="white"/>
<path d="M21.6371 15.6635V22.8318C21.6371 23.4914 22.1723 24.0266 22.8319 24.0266C23.4914 24.0266 24.0266 23.4914 24.0266 22.8318V15.6635C24.0266 15.0034 23.4914 14.4688 22.8319 14.4688C22.1723 14.4688 21.6371 15.0034 21.6371 15.6635Z" fill="white"/>
</svg>
